<?xml version="1.0" encoding="UTF-8" standalone="no"?>
<!DOCTYPE svg PUBLIC "-//W3C//DTD SVG 1.1//EN"
 "http://www.w3.org/Graphics/SVG/1.1/DTD/svg11.dtd">
<!-- Generated by graphviz version 2.28.0 (20120917.0732)
 -->
<!-- Title: G Pages: 1 -->
<svg width="323pt" height="856pt"
 viewBox="0.00 0.00 323.00 856.00" xmlns="http://www.w3.org/2000/svg" xmlns:xlink="http://www.w3.org/1999/xlink">
<g id="graph1" class="graph" transform="scale(1 1) rotate(0) translate(4 852)">
<script type='text/javascript'>
  <![CDATA[

var windows = new Array()
var info = new Array()

function openWin(target, time) {
  win = window.open(target + "_" + time + ".html", target, "location=no,width=400,height=180,left=0,status=no");
  // hm, an associative array, how strange.
  info[target] = 1
}

function advanceTo(time) {
  arr = gup("wins").split(",");
  for (i=0; i < arr.length; i++) {
    if (arr[i] != "") {
      openWin(arr[i], time);
    }
  }
  str = '';
  // getting 'key_cols'
  for (var i in info) {
    str = str + ',' + i;
  }
  self.window.location.href = 'tm_' + time + '.svg?wins=' + str;
}

// off the netz
function gup(name) {
  name = name.replace(/[[]/,"\[").replace(/[]]/,"\]");
  var regexS = "[\?&]"+name+"=([^&#]*)";
  var regex = new RegExp(regexS);
  var results = regex.exec(window.location.href);
  if (results == null)
    return "";
  else
    return results[1];
}

  ]]>
</script>

<polygon fill="white" stroke="white" points="-4,5 -4,-852 320,-852 320,5 -4,5"/>
<!-- sp.spoken -->
<g id="node1" class="node"><title>sp.spoken</title>
<a xlink:href="sp.spoken.html" xlink:title="sp.spoken\n(A)">
<polygon fill="none" stroke="yellow" points="141.25,-462 54.75,-462 54.75,-414 141.25,-414 141.25,-462"/>
<text text-anchor="middle" x="98" y="-443.6" font-family="Times,serif" font-size="18.00">sp.spoken</text>
<text text-anchor="middle" x="98" y="-423.6" font-family="Times,serif" font-size="18.00">(A)</text>
</a>
</g>
<!-- sp.hear -->
<g id="node4" class="node"><title>sp.hear</title>
<a xlink:href="sp.hear.html" xlink:title="sp.hear\n(A)">
<ellipse fill="none" stroke="yellow" cx="160" cy="-334" rx="48.125" ry="33.8824"/>
<text text-anchor="middle" x="160" y="-339.6" font-family="Times,serif" font-size="18.00">sp.hear</text>
<text text-anchor="middle" x="160" y="-319.6" font-family="Times,serif" font-size="18.00">(A)</text>
</a>
</g>
<!-- sp.spoken&#45;&gt;sp.hear -->
<g id="edge4" class="edge"><title>sp.spoken&#45;&gt;sp.hear</title>
<a xlink:href="1-sp.hear.html">
<path fill="none" stroke="yellow" stroke-width="5" d="M112.069,-413.855C117.722,-404.555 124.458,-393.473 131.068,-382.598"/>
<polygon fill="yellow" stroke="yellow" points="138.605,-387.044 141.516,-365.409 123.651,-377.955 138.605,-387.044"/>
</a>
</g>
<!-- sp.speak -->
<g id="node2" class="node"><title>sp.speak</title>
<a xlink:href="sp.speak.html" xlink:title="sp.speak\n(A)">
<ellipse fill="none" stroke="yellow" cx="78" cy="-542" rx="54.1711" ry="33.8824"/>
<text text-anchor="middle" x="78" y="-547.6" font-family="Times,serif" font-size="18.00">sp.speak</text>
<text text-anchor="middle" x="78" y="-527.6" font-family="Times,serif" font-size="18.00">(A)</text>
</a>
</g>
<!-- sp.speak&#45;&gt;sp.spoken -->
<g id="edge2" class="edge"><title>sp.speak&#45;&gt;sp.spoken</title>
<a xlink:href="0-sp.spoken.html">
<path fill="none" stroke="yellow" stroke-width="5" d="M84.4382,-508.165C86.0724,-499.831 87.8526,-490.752 89.5695,-481.996"/>
<polygon fill="yellow" stroke="yellow" points="98.2119,-483.394 93.4738,-462.084 81.0389,-480.026 98.2119,-483.394"/>
</a>
</g>
<!-- rcvFromProxy -->
<g id="node12" class="node"><title>rcvFromProxy</title>
<a xlink:href="rcvFromProxy.html" xlink:title="rcvFromProxy\n(A)">
<ellipse fill="none" stroke="yellow" cx="160" cy="-230" rx="85.3397" ry="33.8824"/>
<text text-anchor="middle" x="160" y="-235.6" font-family="Times,serif" font-size="18.00">rcvFromProxy</text>
<text text-anchor="middle" x="160" y="-215.6" font-family="Times,serif" font-size="18.00">(A)</text>
</a>
</g>
<!-- sp.hear&#45;&gt;rcvFromProxy -->
<g id="edge12" class="edge"><title>sp.hear&#45;&gt;rcvFromProxy</title>
<a xlink:href="24-rcvFromProxy.html">
<path fill="none" stroke="yellow" stroke-width="5" stroke-dasharray="5,2" d="M160,-299.884C160,-294.844 160,-289.539 160,-284.201"/>
<polygon fill="yellow" stroke="yellow" points="168.75,-283.95 160,-263.95 151.25,-283.95 168.75,-283.95"/>
</a>
</g>
<!-- sp.listen -->
<g id="node6" class="node"><title>sp.listen</title>
<a xlink:href="sp.listen.html" xlink:title="sp.listen\n(A)">
<ellipse fill="none" stroke="yellow" cx="222" cy="-438" rx="51.99" ry="33.8824"/>
<text text-anchor="middle" x="222" y="-443.6" font-family="Times,serif" font-size="18.00">sp.listen</text>
<text text-anchor="middle" x="222" y="-423.6" font-family="Times,serif" font-size="18.00">(A)</text>
</a>
</g>
<!-- sp.listen&#45;&gt;sp.hear -->
<g id="edge6" class="edge"><title>sp.listen&#45;&gt;sp.hear</title>
<a xlink:href="1-sp.hear.html">
<path fill="none" stroke="yellow" stroke-width="5" d="M203.23,-406.12C198.758,-398.763 193.882,-390.741 189.068,-382.821"/>
<polygon fill="yellow" stroke="yellow" points="196.359,-377.97 178.493,-365.424 181.404,-387.06 196.359,-377.97"/>
</a>
</g>
<!-- speakToProxy -->
<g id="node8" class="node"><title>speakToProxy</title>
<a xlink:href="speakToProxy.html" xlink:title="speakToProxy\n(A)">
<ellipse fill="none" stroke="yellow" cx="84" cy="-646" rx="84.2802" ry="33.8824"/>
<text text-anchor="middle" x="84" y="-651.6" font-family="Times,serif" font-size="18.00">speakToProxy</text>
<text text-anchor="middle" x="84" y="-631.6" font-family="Times,serif" font-size="18.00">(A)</text>
</a>
</g>
<!-- speakToProxy&#45;&gt;sp.speak -->
<g id="edge8" class="edge"><title>speakToProxy&#45;&gt;sp.speak</title>
<a xlink:href="22-sp.speak.html">
<path fill="none" stroke="yellow" stroke-width="5" d="M82.052,-611.884C81.7556,-606.844 81.4435,-601.539 81.1295,-596.201"/>
<polygon fill="yellow" stroke="yellow" points="89.8477,-595.402 79.9383,-575.95 72.3779,-596.43 89.8477,-595.402"/>
</a>
</g>
<!-- listenToProxy -->
<g id="node10" class="node"><title>listenToProxy</title>
<a xlink:href="listenToProxy.html" xlink:title="listenToProxy\n(A)">
<ellipse fill="none" stroke="yellow" cx="233" cy="-542" rx="82.5969" ry="33.8824"/>
<text text-anchor="middle" x="233" y="-547.6" font-family="Times,serif" font-size="18.00">listenToProxy</text>
<text text-anchor="middle" x="233" y="-527.6" font-family="Times,serif" font-size="18.00">(A)</text>
</a>
</g>
<!-- listenToProxy&#45;&gt;sp.listen -->
<g id="edge10" class="edge"><title>listenToProxy&#45;&gt;sp.listen</title>
<a xlink:href="23-sp.listen.html">
<path fill="none" stroke="yellow" stroke-width="5" d="M229.429,-507.884C228.875,-502.755 228.293,-497.349 227.707,-491.915"/>
<polygon fill="yellow" stroke="yellow" points="236.398,-490.897 225.553,-471.95 218.998,-492.773 236.398,-490.897"/>
</a>
</g>
<!-- hear -->
<g id="node18" class="node"><title>hear</title>
<a xlink:href="hear.html" xlink:title="hear\n(A)">
<ellipse fill="none" stroke="yellow" cx="160" cy="-126" rx="33.4126" ry="33.8824"/>
<text text-anchor="middle" x="160" y="-131.6" font-family="Times,serif" font-size="18.00">hear</text>
<text text-anchor="middle" x="160" y="-111.6" font-family="Times,serif" font-size="18.00">(A)</text>
</a>
</g>
<!-- rcvFromProxy&#45;&gt;hear -->
<g id="edge18" class="edge"><title>rcvFromProxy&#45;&gt;hear</title>
<a xlink:href="27-hear.html">
<path fill="none" stroke="yellow" stroke-width="5" d="M160,-195.884C160,-190.844 160,-185.539 160,-180.201"/>
<polygon fill="yellow" stroke="yellow" points="168.75,-179.95 160,-159.95 151.25,-179.95 168.75,-179.95"/>
</a>
</g>
<!-- speak -->
<g id="node14" class="node"><title>speak</title>
<ellipse fill="none" stroke="black" cx="122" cy="-736" rx="41.0183" ry="19.6"/>
<text text-anchor="middle" x="122" y="-731.6" font-family="Times,serif" font-size="18.00">speak</text>
</g>
<!-- speak&#45;&gt;speakToProxy -->
<g id="edge14" class="edge"><title>speak&#45;&gt;speakToProxy</title>
<a xlink:href="25-speakToProxy.html">
<path fill="none" stroke="black" stroke-width="5" stroke-dasharray="5,2" d="M113.941,-716.337C111.56,-710.822 108.83,-704.502 106.01,-697.971"/>
<polygon fill="black" stroke="black" points="113.997,-694.395 98.0351,-679.502 97.9308,-701.332 113.997,-694.395"/>
</a>
</g>
<!-- listen -->
<g id="node16" class="node"><title>listen</title>
<ellipse fill="none" stroke="black" cx="229" cy="-646" rx="38.3379" ry="19.6"/>
<text text-anchor="middle" x="229" y="-641.6" font-family="Times,serif" font-size="18.00">listen</text>
</g>
<!-- listen&#45;&gt;listenToProxy -->
<g id="edge16" class="edge"><title>listen&#45;&gt;listenToProxy</title>
<a xlink:href="26-listenToProxy.html">
<path fill="none" stroke="black" stroke-width="5" stroke-dasharray="5,2" d="M229.752,-625.815C230.086,-617.304 230.497,-606.826 230.913,-596.22"/>
<polygon fill="black" stroke="black" points="239.659,-596.477 231.7,-576.15 222.173,-595.791 239.659,-596.477"/>
</a>
</g>
<!-- T -->
<g id="node21" class="node"><title>T</title>
<a xlink:href="javascript:advanceTo(0)" xlink:title="T">
<polygon fill="none" stroke="blue" stroke-width="3" points="160,-56 133,-28 160,-1.42109e-14 187,-28 160,-56"/>
<text text-anchor="middle" x="160" y="-23.6" font-family="Times,serif" font-size="18.00">T</text>
</a>
</g>
<!-- hear&#45;&gt;T -->
<g id="edge24" class="edge"><title>hear&#45;&gt;T</title>
<path fill="none" stroke="yellow" stroke-width="5" d="M160,-91.9622C160,-86.8368 160,-81.4586 160,-76.0953"/>
<polygon fill="yellow" stroke="yellow" points="168.75,-76.0528 160,-56.0528 151.25,-76.0528 168.75,-76.0528"/>
</g>
<!-- S -->
<g id="node20" class="node"><title>S</title>
<a xlink:href="javascript:advanceTo(-2)" xlink:title="S">
<polygon fill="none" stroke="blue" stroke-width="3" points="166,-848 139,-820 166,-792 193,-820 166,-848"/>
<text text-anchor="middle" x="166" y="-815.6" font-family="Times,serif" font-size="18.00">S</text>
</a>
</g>
<!-- S&#45;&gt;speak -->
<g id="edge20" class="edge"><title>S&#45;&gt;speak</title>
<path fill="none" stroke="blue" stroke-width="5" d="M156.669,-801.61C152.242,-793.359 146.776,-783.174 141.504,-773.349"/>
<polygon fill="blue" stroke="blue" points="149.096,-768.991 131.929,-755.505 133.676,-777.265 149.096,-768.991"/>
</g>
<!-- S&#45;&gt;listen -->
<g id="edge22" class="edge"><title>S&#45;&gt;listen</title>
<path fill="none" stroke="blue" stroke-width="5" d="M173.227,-799.269C183.419,-771.444 202.213,-720.133 215.147,-684.822"/>
<polygon fill="blue" stroke="blue" points="223.482,-687.506 222.145,-665.716 207.05,-681.487 223.482,-687.506"/>
</g>
</g>
</svg>
