<?xml version="1.0" encoding="UTF-8" standalone="no"?>
<!DOCTYPE svg PUBLIC "-//W3C//DTD SVG 1.1//EN"
 "http://www.w3.org/Graphics/SVG/1.1/DTD/svg11.dtd">
<!-- Generated by graphviz version 2.28.0 (20120917.0732)
 -->
<!-- Title: G Pages: 1 -->
<svg width="287pt" height="1022pt"
 viewBox="0.00 0.00 287.00 1022.00" xmlns="http://www.w3.org/2000/svg" xmlns:xlink="http://www.w3.org/1999/xlink">
<g id="graph1" class="graph" transform="scale(1 1) rotate(0) translate(4 1018)">
<script type='text/javascript'>
  <![CDATA[

var windows = new Array()
var info = new Array()

function openWin(target, time) {
  win = window.open(target + "_" + time + ".html", target, "location=no,width=400,height=180,left=0,status=no");
  // hm, an associative array, how strange.
  info[target] = 1
}

function advanceTo(time) {
  arr = gup("wins").split(",");
  for (i=0; i < arr.length; i++) {
    if (arr[i] != "") {
      openWin(arr[i], time);
    }
  }
  str = '';
  // getting 'key_cols'
  for (var i in info) {
    str = str + ',' + i;
  }
  self.window.location.href = 'tm_' + time + '.svg?wins=' + str;
}

// off the netz
function gup(name) {
  name = name.replace(/[[]/,"\[").replace(/[]]/,"\]");
  var regexS = "[\?&]"+name+"=([^&#]*)";
  var regex = new RegExp(regexS);
  var results = regex.exec(window.location.href);
  if (results == null)
    return "";
  else
    return results[1];
}

  ]]>
</script>

<polygon fill="white" stroke="white" points="-4,5 -4,-1018 284,-1018 284,5 -4,5"/>
<!-- sp.spoken -->
<g id="node1" class="node"><title>sp.spoken</title>
<a xlink:href="sp.spoken.html" xlink:title="sp.spoken\n(D)">
<polygon fill="none" stroke="red" stroke-width="4" points="126.25,-460 39.75,-460 39.75,-412 126.25,-412 126.25,-460"/>
<text text-anchor="middle" x="83" y="-441.6" font-family="Times,serif" font-size="18.00">sp.spoken</text>
<text text-anchor="middle" x="83" y="-421.6" font-family="Times,serif" font-size="18.00">(D)</text>
</a>
</g>
<!-- sp.spoken&#45;&gt;sp.spoken -->
<g id="edge4" class="edge"><title>sp.spoken&#45;&gt;sp.spoken</title>
<a xlink:href="1-sp.spoken.html" xlink:title=" +/&#45;">
<path fill="none" stroke="red" stroke-width="5" d="M126.314,-443.719C126.473,-443.709 126.632,-443.699 126.789,-443.688"/>
<polygon fill="red" stroke="red" points="126.314,-428.281 135.927,-447.994 128.622,-438.214 128.93,-448.21 126.931,-448.271 124.932,-448.333 124.624,-438.338 117.935,-448.549 126.314,-428.281 126.314,-428.281"/>
<ellipse fill="none" stroke="red" cx="127.177" cy="-456.267" rx="8" ry="8"/>
</a>
<a xlink:href="1-sp.spoken.html" xlink:title=" +/&#45;">
<text text-anchor="middle" x="156.5" y="-431.6" font-family="Times,serif" font-size="18.00"> +/&#45;</text>
</a>
</g>
<!-- sp.hear -->
<g id="node5" class="node"><title>sp.hear</title>
<a xlink:href="sp.hear.html" xlink:title="sp.hear\n(D)">
<ellipse fill="none" stroke="red" cx="163" cy="-340" rx="48.125" ry="33.8824"/>
<text text-anchor="middle" x="163" y="-345.6" font-family="Times,serif" font-size="18.00">sp.hear</text>
<text text-anchor="middle" x="163" y="-325.6" font-family="Times,serif" font-size="18.00">(D)</text>
</a>
</g>
<!-- sp.spoken&#45;&gt;sp.hear -->
<g id="edge6" class="edge"><title>sp.spoken&#45;&gt;sp.hear</title>
<a xlink:href="2-sp.hear.html">
<path fill="none" stroke="red" stroke-width="5" d="M102.775,-411.764C109.627,-403.713 117.553,-394.4 125.359,-385.229"/>
<polygon fill="red" stroke="red" points="132.293,-390.582 138.592,-369.68 118.966,-379.24 132.293,-390.582"/>
</a>
</g>
<!-- sp.speak -->
<g id="node2" class="node"><title>sp.speak</title>
<a xlink:href="sp.speak.html" xlink:title="sp.speak\n(A)">
<ellipse fill="none" stroke="yellow" cx="84" cy="-598" rx="54.1711" ry="33.8824"/>
<text text-anchor="middle" x="84" y="-603.6" font-family="Times,serif" font-size="18.00">sp.speak</text>
<text text-anchor="middle" x="84" y="-583.6" font-family="Times,serif" font-size="18.00">(A)</text>
</a>
</g>
<!-- sp.speak&#45;&gt;sp.spoken -->
<g id="edge2" class="edge"><title>sp.speak&#45;&gt;sp.spoken</title>
<a xlink:href="0-sp.spoken.html" xlink:title=" +/&#45;">
<path fill="none" stroke="yellow" stroke-width="5" d="M83.7928,-563.848C83.6712,-544.391 83.5139,-519.225 83.3715,-496.444"/>
<polygon fill="yellow" stroke="yellow" points="83.1455,-460.273 92.2703,-480.217 85.2079,-470.261 85.2705,-480.26 83.2705,-480.273 81.2706,-480.286 81.208,-470.286 74.2707,-480.329 83.1455,-460.273 83.1455,-460.273"/>
<ellipse fill="none" stroke="yellow" cx="83.3205" cy="-488.273" rx="8" ry="8"/>
</a>
<a xlink:href="0-sp.spoken.html" xlink:title=" +/&#45;">
<text text-anchor="middle" x="96.5" y="-507.6" font-family="Times,serif" font-size="18.00"> +/&#45;</text>
</a>
</g>
<!-- rcvFromProxy -->
<g id="node13" class="node"><title>rcvFromProxy</title>
<a xlink:href="rcvFromProxy.html" xlink:title="rcvFromProxy\n(D)">
<ellipse fill="none" stroke="red" cx="163" cy="-234" rx="85.3397" ry="33.8824"/>
<text text-anchor="middle" x="163" y="-239.6" font-family="Times,serif" font-size="18.00">rcvFromProxy</text>
<text text-anchor="middle" x="163" y="-219.6" font-family="Times,serif" font-size="18.00">(D)</text>
</a>
</g>
<!-- sp.hear&#45;&gt;rcvFromProxy -->
<g id="edge14" class="edge"><title>sp.hear&#45;&gt;rcvFromProxy</title>
<a xlink:href="24-rcvFromProxy.html">
<path fill="none" stroke="red" stroke-width="5" stroke-dasharray="5,2" d="M163,-305.808C163,-300.273 163,-294.409 163,-288.52"/>
<polygon fill="red" stroke="red" points="171.75,-288.234 163,-268.234 154.25,-288.234 171.75,-288.234"/>
</a>
</g>
<!-- sp.listen -->
<g id="node7" class="node"><title>sp.listen</title>
<a xlink:href="sp.listen.html" xlink:title="sp.listen\n(A)">
<ellipse fill="none" stroke="yellow" cx="197" cy="-512" rx="51.99" ry="33.8824"/>
<text text-anchor="middle" x="197" y="-517.6" font-family="Times,serif" font-size="18.00">sp.listen</text>
<text text-anchor="middle" x="197" y="-497.6" font-family="Times,serif" font-size="18.00">(A)</text>
</a>
</g>
<!-- sp.listen&#45;&gt;sp.hear -->
<g id="edge8" class="edge"><title>sp.listen&#45;&gt;sp.hear</title>
<a xlink:href="2-sp.hear.html">
<path fill="none" stroke="yellow" stroke-width="5" d="M190.82,-477.97C187.177,-458.71 182.427,-433.96 178,-412 176.802,-406.056 175.524,-399.837 174.239,-393.656"/>
<polygon fill="yellow" stroke="yellow" points="182.752,-391.619 170.073,-373.848 165.626,-395.22 182.752,-391.619"/>
</a>
</g>
<!-- speakToProxy -->
<g id="node9" class="node"><title>speakToProxy</title>
<a xlink:href="speakToProxy.html" xlink:title="speakToProxy\n(A)">
<ellipse fill="none" stroke="yellow" cx="84" cy="-770" rx="84.2802" ry="33.8824"/>
<text text-anchor="middle" x="84" y="-775.6" font-family="Times,serif" font-size="18.00">speakToProxy</text>
<text text-anchor="middle" x="84" y="-755.6" font-family="Times,serif" font-size="18.00">(A)</text>
</a>
</g>
<!-- speakToProxy&#45;&gt;sp.speak -->
<g id="edge10" class="edge"><title>speakToProxy&#45;&gt;sp.speak</title>
<a xlink:href="22-sp.speak.html">
<path fill="none" stroke="yellow" stroke-width="5" d="M84,-735.819C84,-712.066 84,-679.583 84,-652.228"/>
<polygon fill="yellow" stroke="yellow" points="92.7501,-652.098 84,-632.098 75.2501,-652.098 92.7501,-652.098"/>
</a>
</g>
<!-- listenToProxy -->
<g id="node11" class="node"><title>listenToProxy</title>
<a xlink:href="listenToProxy.html" xlink:title="listenToProxy\n(A)">
<ellipse fill="none" stroke="yellow" cx="197" cy="-684" rx="82.5969" ry="33.8824"/>
<text text-anchor="middle" x="197" y="-689.6" font-family="Times,serif" font-size="18.00">listenToProxy</text>
<text text-anchor="middle" x="197" y="-669.6" font-family="Times,serif" font-size="18.00">(A)</text>
</a>
</g>
<!-- listenToProxy&#45;&gt;sp.listen -->
<g id="edge12" class="edge"><title>listenToProxy&#45;&gt;sp.listen</title>
<a xlink:href="23-sp.listen.html">
<path fill="none" stroke="yellow" stroke-width="5" d="M197,-649.819C197,-626.066 197,-593.583 197,-566.228"/>
<polygon fill="yellow" stroke="yellow" points="205.75,-566.098 197,-546.098 188.25,-566.098 205.75,-566.098"/>
</a>
</g>
<!-- hear -->
<g id="node19" class="node"><title>hear</title>
<a xlink:href="hear.html" xlink:title="hear\n(D)">
<ellipse fill="none" stroke="red" cx="163" cy="-128" rx="33.4126" ry="33.8824"/>
<text text-anchor="middle" x="163" y="-133.6" font-family="Times,serif" font-size="18.00">hear</text>
<text text-anchor="middle" x="163" y="-113.6" font-family="Times,serif" font-size="18.00">(D)</text>
</a>
</g>
<!-- rcvFromProxy&#45;&gt;hear -->
<g id="edge20" class="edge"><title>rcvFromProxy&#45;&gt;hear</title>
<a xlink:href="27-hear.html">
<path fill="none" stroke="red" stroke-width="5" d="M163,-199.808C163,-194.273 163,-188.409 163,-182.52"/>
<polygon fill="red" stroke="red" points="171.75,-182.234 163,-162.234 154.25,-182.234 171.75,-182.234"/>
</a>
</g>
<!-- speak -->
<g id="node15" class="node"><title>speak</title>
<ellipse fill="none" stroke="black" cx="111" cy="-900" rx="41.0183" ry="19.6"/>
<text text-anchor="middle" x="111" y="-895.6" font-family="Times,serif" font-size="18.00">speak</text>
</g>
<!-- speak&#45;&gt;speakToProxy -->
<g id="edge16" class="edge"><title>speak&#45;&gt;speakToProxy</title>
<a xlink:href="25-speakToProxy.html">
<path fill="none" stroke="black" stroke-width="5" stroke-dasharray="5,2" d="M107.016,-880.113C103.864,-865.17 99.3039,-843.552 95.0727,-823.493"/>
<polygon fill="black" stroke="black" points="103.625,-821.643 90.9356,-803.88 86.502,-825.255 103.625,-821.643"/>
</a>
</g>
<!-- listen -->
<g id="node17" class="node"><title>listen</title>
<ellipse fill="none" stroke="black" cx="194" cy="-842" rx="38.3379" ry="19.6"/>
<text text-anchor="middle" x="194" y="-837.6" font-family="Times,serif" font-size="18.00">listen</text>
</g>
<!-- listen&#45;&gt;listenToProxy -->
<g id="edge18" class="edge"><title>listen&#45;&gt;listenToProxy</title>
<a xlink:href="26-listenToProxy.html">
<path fill="none" stroke="black" stroke-width="5" stroke-dasharray="5,2" d="M194.362,-822.183C194.761,-801.446 195.42,-767.171 195.979,-738.069"/>
<polygon fill="black" stroke="black" points="204.728,-738.226 196.364,-718.061 187.231,-737.889 204.728,-738.226"/>
</a>
</g>
<!-- T -->
<g id="node22" class="node"><title>T</title>
<a xlink:href="javascript:advanceTo(0)" xlink:title="T">
<polygon fill="none" stroke="blue" stroke-width="3" points="163,-56 136,-28 163,-1.42109e-14 190,-28 163,-56"/>
<text text-anchor="middle" x="163" y="-23.6" font-family="Times,serif" font-size="18.00">T</text>
</a>
</g>
<!-- hear&#45;&gt;T -->
<g id="edge26" class="edge"><title>hear&#45;&gt;T</title>
<path fill="none" stroke="red" stroke-width="5" d="M163,-93.8217C163,-88.1907 163,-82.2475 163,-76.3366"/>
<polygon fill="red" stroke="red" points="171.75,-76.2821 163,-56.2822 154.25,-76.2822 171.75,-76.2821"/>
</g>
<!-- S -->
<g id="node21" class="node"><title>S</title>
<a xlink:href="javascript:advanceTo(-2)" xlink:title="S">
<polygon fill="none" stroke="blue" stroke-width="3" points="159,-1014 132,-986 159,-958 186,-986 159,-1014"/>
<text text-anchor="middle" x="159" y="-981.6" font-family="Times,serif" font-size="18.00">S</text>
</a>
</g>
<!-- S&#45;&gt;speak -->
<g id="edge22" class="edge"><title>S&#45;&gt;speak</title>
<path fill="none" stroke="blue" stroke-width="5" d="M149.286,-968.001C144.19,-959.082 137.742,-947.798 131.598,-937.046"/>
<polygon fill="blue" stroke="blue" points="139.052,-932.455 121.532,-919.431 123.858,-941.137 139.052,-932.455"/>
</g>
<!-- S&#45;&gt;listen -->
<g id="edge24" class="edge"><title>S&#45;&gt;listen</title>
<path fill="none" stroke="blue" stroke-width="5" d="M164.316,-963.433C169.661,-941.747 178.017,-907.845 184.503,-881.529"/>
<polygon fill="blue" stroke="blue" points="193.017,-883.548 189.308,-862.036 176.026,-879.36 193.017,-883.548"/>
</g>
</g>
</svg>
